<svg width="196" height="192" viewBox="0 0 196 192" fill="none" xmlns="http://www.w3.org/2000/svg">
<path d="M23.4996 55.5231C-3.37408 52.1639 14.1703 -11.5579 36.0663 15.8121C42.215 23.4979 29.5472 52.8258 20.9862 55.2718C4.65759 59.9371 5.98966 32.9029 21.2375 32.9029C47.6891 32.9029 49.2945 74.2845 16.4622 55.5231C-9.14995 40.8876 40.3928 10.5705 28.0236 60.0472" stroke="black" stroke-width="18" stroke-linecap="round"/>
<path d="M163.745 41.9509C152.954 43.2998 126.853 46.1303 144.644 31.8975C164.599 15.9331 172.793 17.8682 172.793 44.213C172.793 90.6775 101.097 32.9029 159.221 32.9029" stroke="black" stroke-width="18" stroke-linecap="round"/>
<path d="M14.4514 155.052C40.5817 178.279 71.7803 171.059 102.67 177.924C111.035 179.783 116.225 182.196 125.29 182.196C133.034 182.196 137.421 174.062 145.649 173.148C163.799 171.132 172.204 148.561 186.365 141.48" stroke="black" stroke-width="18" stroke-linecap="round"/>
<path d="M77.7882 82.6675C32.537 82.6675 80.0174 150.594 95.8844 118.86" stroke="black" stroke-width="18" stroke-linecap="round"/>
</svg>
